<?xml version="1.0" encoding="utf-8"?>
<!-- Generator: Adobe Illustrator 14.0.0, SVG Export Plug-In . SVG Version: 6.00 Build 43363)  -->
<!DOCTYPE svg PUBLIC "-//W3C//DTD SVG 1.1//EN" "http://www.w3.org/Graphics/SVG/1.1/DTD/svg11.dtd">
<svg version="1.1" id="Layer_1" xmlns="http://www.w3.org/2000/svg" xmlns:xlink="http://www.w3.org/1999/xlink" x="0px" y="0px"
	 width="600px" height="600px" viewBox="0 0 600 600" enable-background="new 0 0 600 600" xml:space="preserve">
<circle fill="#BF6D00" cx="491.862" cy="195.97" r="64.356"/>
<circle fill="#FFB058" cx="491.862" cy="195.97" r="54.456"/>
<circle fill="#BF6D00" cx="150.337" cy="195.971" r="64.356"/>
<circle fill="#FFB058" cx="150.337" cy="195.971" r="54.456"/>
<ellipse fill="#BF6D00" cx="322.119" cy="235.149" rx="171.782" ry="139.11"/>
<ellipse fill="#BF6D00" cx="322.119" cy="326.665" rx="238.119" ry="139.108"/>
<circle fill="#FFB058" cx="253.325" cy="214.784" r="68.794"/>
<circle fill="#FFB058" cx="390.913" cy="214.784" r="68.794"/>
<ellipse fill="#FFB058" cx="325.584" cy="316.527" rx="213.861" ry="110.139"/>
<ellipse fill="#FFFFFF" cx="102.814" cy="527.16" rx="42.576" ry="68.812"/>
<ellipse fill="#FFFFFF" cx="253.325" cy="228.017" rx="39.681" ry="55.56"/>
<ellipse fill="#FFFFFF" cx="397.761" cy="223.74" rx="39.681" ry="55.56"/>
<ellipse cx="263.707" cy="226.638" rx="23.336" ry="30.667"/>
<ellipse cx="409.033" cy="223.74" rx="23.336" ry="30.667"/>
<ellipse fill="#FFFFFF" cx="272.943" cy="222.429" rx="9.236" ry="15.291"/>
<ellipse fill="#FFFFFF" cx="272.943" cy="222.429" rx="0" ry="7.646"/>
<ellipse fill="#FFFFFF" cx="418.27" cy="222.429" rx="9.236" ry="15.291"/>
<path fill="#DE8126" d="M448.346,334.684c0,21.884-54.962,57.287-122.762,57.287c-67.799,0-122.761-35.403-122.761-57.287
	c0-21.885,54.963,7.968,122.762,7.968C393.385,342.651,448.346,312.799,448.346,334.684z"/>
<path fill="#DE8126" d="M371.728,297.057c0,9.807-18.745,10.755-46.144,10.755c-27.397,0-53.072-0.948-53.072-10.755
	c0-9.808,22.21-17.757,49.607-17.757C349.518,279.3,371.728,287.249,371.728,297.057z"/>
</svg>
