<?xml version="1.0" encoding="UTF-8" standalone="no"?>
<!-- Created with Inkscape (http://www.inkscape.org/) -->

<svg
   width="12mm"
   height="12mm"
   viewBox="0 0 12 12"
   version="1.1"
   id="svg116"
   inkscape:version="1.2.2 (1:1.2.2+202305151914+b0a8486541)"
   sodipodi:docname="1.svg"
   xmlns:inkscape="http://www.inkscape.org/namespaces/inkscape"
   xmlns:sodipodi="http://sodipodi.sourceforge.net/DTD/sodipodi-0.dtd"
   xmlns="http://www.w3.org/2000/svg"
   xmlns:svg="http://www.w3.org/2000/svg">
  <sodipodi:namedview
     id="namedview118"
     pagecolor="#ffffff"
     bordercolor="#000000"
     borderopacity="0.25"
     inkscape:showpageshadow="2"
     inkscape:pageopacity="0.0"
     inkscape:pagecheckerboard="0"
     inkscape:deskcolor="#d1d1d1"
     inkscape:document-units="mm"
     showgrid="false"
     inkscape:zoom="7.0270484"
     inkscape:cx="36.999888"
     inkscape:cy="25.117231"
     inkscape:window-width="1366"
     inkscape:window-height="673"
     inkscape:window-x="0"
     inkscape:window-y="0"
     inkscape:window-maximized="1"
     inkscape:current-layer="layer1" />
  <defs
     id="defs113" />
  <g
     inkscape:label="Layer 1"
     inkscape:groupmode="layer"
     id="layer1"
     style="display:inline"
     transform="translate(0.26158854,0.42230872)">
    <ellipse
       style="fill:#e0f2fe;fill-opacity:1;stroke-width:0.0656278"
       id="path390"
       cx="5.7025299"
       cy="5.5649762"
       rx="5.9951534"
       ry="5.7397747" />
  </g>
  <g
     inkscape:groupmode="layer"
     id="layer2"
     inkscape:label="Layer 2">
    <g
       id="g1908"
       transform="matrix(0.18490319,0,0,0.18765949,0.58402459,0.20057593)"
       sodipodi:insensitive="true">
      <path
         inkscape:connector-curvature="0"
         id="path919"
         d="m 32.077994,24.826178 a 19.318984,11.326904 0 0 0 -19.318984,11.326949 19.318984,11.326904 0 0 0 3.909704,6.81447 v 12.791909 c 1.686578,2.113637 3.143171,0.63024 4.829746,-0.57479 l 0.149672,-9.511078 a 19.318984,11.326904 0 0 0 4.909928,1.32881 V 58.05961 c 1.686577,2.113637 3.143171,0.629926 4.829745,-0.575105 l 0.157846,-10.02015 a 19.318984,11.326904 0 0 0 0.532343,0.01573 19.318984,11.326904 0 0 0 3.3346,-0.171369 v 8.680966 c 1.686578,2.113636 3.143171,0.629924 4.829746,-0.575106 l 0.142438,-9.046969 a 19.318984,11.326904 0 0 0 3.767581,-1.375659 v 8.582861 c 1.686576,2.113636 3.143171,0.629924 4.829746,-0.575106 l 0.182057,-11.576925 a 19.318984,11.326904 0 0 0 2.232815,-5.269644 19.318984,11.326904 0 0 0 -0.01352,-0.156588 l 6.271438,-2.320543 -0.877908,-2.372739 c -1.906814,1.710251 -3.851427,2.260293 -5.806071,2.505431 A 19.318984,11.326904 0 0 0 32.077994,24.826178 Z"
         style="opacity:1;fill:#ffff3e;fill-opacity:1;stroke:none;stroke-width:0.658899;stroke-miterlimit:4;stroke-dasharray:none;stroke-opacity:1" />
      <path
         sodipodi:nodetypes="sssss"
         inkscape:connector-curvature="0"
         id="path934"
         d="m 58.119299,33.672908 c -1.426969,0.582715 -2.211555,0.155367 -2.635445,-0.593893 -0.423895,-0.74926 -0.03544,-1.022136 1.39153,-1.604845 1.426967,-0.582709 2.818493,-1.958142 3.242384,-1.208869 0.423895,0.749266 -0.571503,2.824897 -1.998469,3.407607 z"
         style="opacity:1;fill:#ff6600;fill-opacity:1;stroke:none;stroke-width:0.297968;stroke-miterlimit:4;stroke-dasharray:none;stroke-opacity:1" />
      <path
         inkscape:connector-curvature="0"
         d="M 44.343357,16.285773 A 8.2248915,6.8239801 0 0 1 32.755858,17.126867 8.2248915,6.8239801 0 0 1 31.742084,7.5130379 8.2248915,6.8239801 0 0 1 43.32958,6.6719271 8.2248915,6.8239801 0 0 1 44.343357,16.285773 Z m 0.585653,10.939456 a 8.2248915,6.8239801 0 0 1 -9.52818,-5.535337 8.2248915,6.8239801 0 0 1 6.671703,-7.905286 8.2248915,6.8239801 0 0 1 9.528158,5.535344 8.2248915,6.8239801 0 0 1 -6.671681,7.905279 z m -8.026679,8.692442 a 8.2248915,6.8239801 0 0 1 -3.010518,-9.321735 8.2248915,6.8239801 0 0 1 11.235412,-2.497758 8.2248915,6.8239801 0 0 1 3.010513,9.321735 8.2248915,6.8239801 0 0 1 -11.235407,2.497758 z M 24.0191,38.295806 a 8.2248915,6.8239801 0 0 1 4.915791,-8.746385 8.2248915,6.8239801 0 0 1 10.541946,4.078514 8.2248915,6.8239801 0 0 1 -4.91579,8.746374 A 8.2248915,6.8239801 0 0 1 24.0191,38.295806 Z m -11.711586,-5.04892 a 8.2248915,6.8239801 0 0 1 10.541947,-4.078498 8.2248915,6.8239801 0 0 1 4.915791,8.746374 8.2248915,6.8239801 0 0 1 -10.541946,4.078504 8.2248915,6.8239801 0 0 1 -4.915792,-8.74638 z M 7.2475508,23.133344 A 8.2248915,6.8239801 0 0 1 18.482961,25.631107 8.2248915,6.8239801 0 0 1 15.472443,34.952831 8.2248915,6.8239801 0 0 1 4.2370303,32.455079 8.2248915,6.8239801 0 0 1 7.2475508,23.133344 Z m 3.9592822,-10.44591 a 8.2248915,6.8239801 0 0 1 6.671699,7.905271 8.2248915,6.8239801 0 0 1 -9.5281734,5.535337 8.2248915,6.8239801 0 0 1 -6.6716998,-7.905274 8.2248915,6.8239801 0 0 1 9.5281742,-5.535334 z M 22.332769,6.7968842 A 8.2248915,6.8239801 0 0 1 21.318996,16.410729 8.2248915,6.8239801 0 0 1 9.731505,15.569635 8.2248915,6.8239801 0 0 1 10.74528,5.9557842 a 8.2248915,6.8239801 0 0 1 11.587489,0.8411 z m 13.086638,1.4210967 a 8.2248915,6.8239801 0 0 1 -8.224892,6.8239811 8.2248915,6.8239801 0 0 1 -8.22489,-6.8239752 8.2248915,6.8239801 0 0 1 8.22489,-6.8239839 8.2248915,6.8239801 0 0 1 8.224892,6.823978 z"
         style="opacity:1;fill:#ff6600;fill-opacity:1;stroke:none;stroke-width:1.61802;stroke-miterlimit:4;stroke-dasharray:none;stroke-opacity:1"
         id="circle873" />
      <g
         transform="matrix(0.53830399,0,0,0.53830399,-14.101502,-39.352881)"
         id="g1042">
        <g
           id="g1037"
           transform="matrix(1.3774611,0,0,1.1393436,-20.805966,-13.520965)">
          <path
             style="opacity:1;fill:#ffff3e;fill-opacity:1;stroke:none;stroke-width:1.54959;stroke-miterlimit:4;stroke-dasharray:none;stroke-opacity:1"
             d="m 59.241164,93.584207 c 2.73846,2.992447 1.361777,5.562285 -0.487657,7.254753 -1.849433,1.69246 -4.534527,3.25082 -7.27299,0.25837 -2.738461,-2.992442 -2.452897,-6.888857 -0.603465,-8.58132 1.849434,-1.692463 5.625648,-1.924247 8.364112,1.068197 z"
             id="path840"
             inkscape:connector-curvature="0"
             sodipodi:nodetypes="sssss" />
        </g>
        <path
           style="opacity:1;fill:#ff6600;fill-opacity:1;stroke:none;stroke-width:1.07;stroke-miterlimit:4;stroke-dasharray:none;stroke-opacity:1"
           d="m 58.754257,96.496784 c 1.890919,2.066296 1.172564,3.060423 -0.104477,4.229076 -1.277041,1.16865 -2.629179,2.06928 -4.520098,0.003 -1.890919,-2.066296 -2.388566,-4.688741 -1.111525,-5.857393 1.277041,-1.168652 3.845181,-0.440968 5.7361,1.625327 z"
           id="path837"
           inkscape:connector-curvature="0"
           sodipodi:nodetypes="sssss" />
      </g>
      <g
         transform="matrix(-0.53830399,0,0,0.53830399,65.887693,-39.568689)"
         id="g1050">
        <g
           transform="matrix(1.3774611,0,0,1.1393436,-20.805966,-13.520965)"
           id="g1046">
          <path
             sodipodi:nodetypes="sssss"
             inkscape:connector-curvature="0"
             id="path1044"
             d="m 59.241164,93.584207 c 2.73846,2.992447 1.361777,5.562285 -0.487657,7.254753 -1.849433,1.69246 -4.534527,3.25082 -7.27299,0.25837 -2.738461,-2.992442 -2.452897,-6.888857 -0.603465,-8.58132 1.849434,-1.692463 5.625648,-1.924247 8.364112,1.068197 z"
             style="opacity:1;fill:#ffff3e;fill-opacity:1;stroke:none;stroke-width:1.54959;stroke-miterlimit:4;stroke-dasharray:none;stroke-opacity:1" />
        </g>
        <path
           sodipodi:nodetypes="sssss"
           inkscape:connector-curvature="0"
           id="path1048"
           d="m 58.754257,96.496784 c 1.890919,2.066296 1.172564,3.060423 -0.104477,4.229076 -1.277041,1.16865 -2.629179,2.06928 -4.520098,0.003 -1.890919,-2.066296 -2.388566,-4.688741 -1.111525,-5.857393 1.277041,-1.168652 3.845181,-0.440968 5.7361,1.625327 z"
           style="opacity:1;fill:#ff6600;fill-opacity:1;stroke:none;stroke-width:1.07;stroke-miterlimit:4;stroke-dasharray:none;stroke-opacity:1" />
      </g>
      <circle
         r="14.151076"
         cy="25.02458"
         cx="25.92518"
         id="path10"
         style="opacity:1;fill:#ffff3e;fill-opacity:1;stroke:#ffffff;stroke-width:0.0374391;stroke-miterlimit:4;stroke-dasharray:none;stroke-opacity:1" />
      <ellipse
         ry="2.3091514"
         rx="3.3867552"
         cy="27.767673"
         cx="25.92518"
         id="path817"
         style="opacity:1;fill:#ff6600;fill-opacity:1;stroke:#ffffff;stroke-width:0.0374391;stroke-miterlimit:4;stroke-dasharray:none;stroke-opacity:1" />
      <path
         inkscape:connector-curvature="0"
         d="m 25.93849,33.619818 0.09229,-4.891229 m -2.584046,2.168751 c 1.892804,3.905148 3.490161,3.378611 4.891228,-0.09228"
         style="fill:none;stroke:#ff6600;stroke-width:0.575986;stroke-linecap:butt;stroke-linejoin:miter;stroke-miterlimit:4;stroke-dasharray:none;stroke-opacity:1"
         id="path821" />
      <path
         sodipodi:nodetypes="sssss"
         inkscape:connector-curvature="0"
         id="path1888"
         d="m 27.478923,22.542909 c 0.205886,1.974186 0.712479,3.539172 2.686671,3.333275 1.974193,-0.205883 2.881101,-1.918269 2.675221,-3.892447 -0.205882,-1.974203 -1.446599,-3.462617 -3.420795,-3.256734 -1.974198,0.205883 -2.146984,1.84172 -1.941097,3.815906 z"
         style="opacity:1;fill:#ffffff;fill-opacity:1;stroke:none;stroke-width:1.12059;stroke-miterlimit:4;stroke-dasharray:none;stroke-opacity:1" />
      <path
         style="opacity:1;fill:#2d2d2d;fill-opacity:1;stroke:none;stroke-width:0.766345;stroke-miterlimit:4;stroke-dasharray:none;stroke-opacity:1"
         d="m 28.17065,23.265288 c 0.140801,1.350104 0.487249,2.420365 1.837357,2.279555 1.350108,-0.140798 1.970324,-1.311862 1.829527,-2.661961 -0.140798,-1.350115 -0.989298,-2.36801 -2.339409,-2.227211 -1.350112,0.140798 -1.468277,1.259512 -1.327475,2.609617 z"
         id="path835"
         inkscape:connector-curvature="0"
         sodipodi:nodetypes="sssss" />
      <path
         style="opacity:1;fill:#ffffff;fill-opacity:1;stroke:none;stroke-width:1.12059;stroke-miterlimit:4;stroke-dasharray:none;stroke-opacity:1"
         d="m 18.12449,22.409274 c 0.205886,1.974186 0.712479,3.539172 2.686671,3.333275 1.974193,-0.205883 2.881101,-1.918269 2.675221,-3.892447 -0.205882,-1.974203 -1.446599,-3.462617 -3.420795,-3.256734 -1.974198,0.205883 -2.146984,1.84172 -1.941097,3.815906 z"
         id="path1886"
         inkscape:connector-curvature="0"
         sodipodi:nodetypes="sssss" />
      <path
         sodipodi:nodetypes="sssss"
         inkscape:connector-curvature="0"
         id="path1034"
         d="m 19.56127,23.067852 c 0.140801,1.350104 0.487249,2.420365 1.837357,2.279556 1.350109,-0.140799 1.970324,-1.311863 1.829527,-2.661962 -0.140798,-1.350115 -0.989298,-2.36801 -2.339409,-2.227211 -1.350112,0.140799 -1.468277,1.259513 -1.327475,2.609617 z"
         style="opacity:1;fill:#2d2d2d;fill-opacity:1;stroke:none;stroke-width:0.766345;stroke-miterlimit:4;stroke-dasharray:none;stroke-opacity:1" />
    </g>
  </g>
</svg>
