<?xml version="1.0" encoding="UTF-8" standalone="no"?>
<!-- Created with Inkscape (http://www.inkscape.org/) -->

<svg
   width="12mm"
   height="12mm"
   viewBox="0 0 12 12"
   version="1.1"
   id="svg116"
   inkscape:version="1.2.2 (1:1.2.2+202305151914+b0a8486541)"
   sodipodi:docname="2.svg"
   xmlns:inkscape="http://www.inkscape.org/namespaces/inkscape"
   xmlns:sodipodi="http://sodipodi.sourceforge.net/DTD/sodipodi-0.dtd"
   xmlns="http://www.w3.org/2000/svg"
   xmlns:svg="http://www.w3.org/2000/svg">
  <sodipodi:namedview
     id="namedview118"
     pagecolor="#ffffff"
     bordercolor="#000000"
     borderopacity="0.25"
     inkscape:showpageshadow="2"
     inkscape:pageopacity="0.0"
     inkscape:pagecheckerboard="0"
     inkscape:deskcolor="#d1d1d1"
     inkscape:document-units="mm"
     showgrid="false"
     inkscape:zoom="7.0270484"
     inkscape:cx="27.892223"
     inkscape:cy="30.809522"
     inkscape:window-width="1366"
     inkscape:window-height="673"
     inkscape:window-x="0"
     inkscape:window-y="0"
     inkscape:window-maximized="1"
     inkscape:current-layer="layer3" />
  <defs
     id="defs113" />
  <g
     inkscape:groupmode="layer"
     id="layer3"
     inkscape:label="Layer 1">
    <ellipse
       style="fill:#f0b429;fill-opacity:1;stroke-width:0.0722488"
       id="path732"
       cx="6.016108"
       cy="5.9108295"
       rx="6.0328836"
       ry="5.9103541" />
  </g>
  <g
     inkscape:groupmode="layer"
     id="layer2"
     inkscape:label="Layer 2">
    <g
       id="g1855"
       transform="matrix(0.21296472,0,0,0.17043209,-30.179273,-9.640253)"
       sodipodi:insensitive="true">
      <g
         transform="matrix(0.75579225,0,0,0.75579225,36.077965,18.917855)"
         id="g1826">
        <path
           id="path1660"
           d="m 177.80778,97.528597 c -14.48466,-0.199592 -29.30591,3.983123 -29.96168,2.930133 0,-1.044174 5.03159,-6.045961 10.77991,-6.69366 5.01024,-0.564532 11.64173,-0.908115 18.9145,-0.908115 15.61695,0 28.277,1.584255 28.27701,3.538533 -0.0693,1.607604 -12.69658,1.344117 -28.00974,1.133109 z"
           style="opacity:1;fill:#804d00;fill-opacity:1;stroke:none;stroke-width:0.119765;stroke-miterlimit:4;stroke-dasharray:none;stroke-opacity:1"
           inkscape:connector-curvature="0"
           sodipodi:nodetypes="scsscs" />
        <path
           sodipodi:nodetypes="scscs"
           id="path1670"
           d="m 151.97836,96.402762 c 2.94636,-1.099381 1.78863,1.3117 1.96619,1.787627 0.1776,0.475916 2.62799,0.651441 -0.29113,1.730092 -3.86587,1.428489 -5.72665,0.984679 -5.90423,0.508759 -0.1776,-0.475915 1.2828,-2.927083 4.22917,-4.026478 z"
           style="opacity:1;fill:#ffc500;fill-opacity:1;stroke:none;stroke-width:0.0274002;stroke-miterlimit:4;stroke-dasharray:none;stroke-opacity:1"
           inkscape:connector-curvature="0" />
        <path
           inkscape:connector-curvature="0"
           style="opacity:1;fill:#ffc500;fill-opacity:1;stroke:none;stroke-width:0.0274002;stroke-miterlimit:4;stroke-dasharray:none;stroke-opacity:1"
           d="m 200.63562,93.850362 c -3.14445,-0.04669 -1.24461,1.835943 -1.25213,2.343862 -0.008,0.507918 -2.25688,1.49571 0.85494,1.532012 4.12107,0.04807 5.72493,-0.994546 5.73248,-1.50246 0.008,-0.507921 -2.19084,-2.326723 -5.33529,-2.373414 z"
           id="path1672"
           sodipodi:nodetypes="scscs" />
        <path
           inkscape:connector-curvature="0"
           style="opacity:1;fill:#804d00;fill-opacity:1;stroke:none;stroke-width:0.0991785;stroke-miterlimit:4;stroke-dasharray:none;stroke-opacity:1"
           d="m 179.71508,116.32817 c -2.60417,-11.0811 2.94038,-7.18368 4.76016,-6.92082 1.81978,0.26287 0.21339,-3.39493 1.82987,7.87267 1.71208,11.93392 -4.34533,20.20117 -6.24141,19.92309 -1.65178,-0.25443 2.34985,-9.39259 -0.34862,-20.87494 z"
           id="path1662"
           sodipodi:nodetypes="scscs" />
        <path
           sodipodi:nodetypes="scscs"
           id="path1664"
           d="m 170.60653,112.48241 c 8.79986,-7.22043 6.01183,-4.91007 7.48566,-3.81072 1.47382,1.09934 4.65737,-1.33254 -2.14843,7.79175 -6.80581,9.12431 -13.51779,15.62984 -14.99163,14.53053 -1.55878,-1.2692 1.59348,-11.89743 9.6544,-18.51156 z"
           style="opacity:1;fill:#804d00;fill-opacity:1;stroke:none;stroke-width:0.0991785;stroke-miterlimit:4;stroke-dasharray:none;stroke-opacity:1"
           inkscape:connector-curvature="0" />
        <path
           inkscape:connector-curvature="0"
           style="opacity:1;fill:#ffc500;fill-opacity:1;stroke:none;stroke-width:0.0266216;stroke-miterlimit:4;stroke-dasharray:none;stroke-opacity:1"
           d="m 162.20822,125.66793 c 1.82683,-2.44915 1.79398,0.0641 2.18959,0.35922 0.39561,0.29509 3.16535,-0.33732 1.28614,2.03138 -2.39003,3.01258 -4.77018,3.35411 -5.16579,3.05902 -0.39562,-0.29507 -0.13676,-3.00046 1.69006,-5.44962 z"
           id="path1666"
           sodipodi:nodetypes="scscs" />
        <path
           sodipodi:nodetypes="scscs"
           id="path1668"
           d="m 179.87944,131.43906 c 0.91435,-2.81393 1.80308,-0.29387 2.25761,-0.14615 0.45453,0.14767 3.06311,-0.96006 1.77983,1.67169 -1.2968,2.65942 -3.30158,4.35027 -3.75611,4.20258 -0.45454,-0.14768 -1.19568,-2.91418 -0.28133,-5.72812 z"
           style="opacity:1;fill:#ffc500;fill-opacity:1;stroke:none;stroke-width:0.0257793;stroke-miterlimit:4;stroke-dasharray:none;stroke-opacity:1"
           inkscape:connector-curvature="0" />
        <path
           style="opacity:1;fill:none;fill-opacity:1;stroke:#804d00;stroke-width:2;stroke-miterlimit:4;stroke-dasharray:none;stroke-opacity:1"
           id="path1676"
           d="m 186.429,112.71353 c -0.0483,0.8115 0.0681,1.58663 0.33699,2.35003 0.27611,0.88896 0.8014,1.66536 1.25826,2.46806 0.48221,0.836 1.06025,1.6017 1.66705,2.34947 0.49367,0.57919 1.03283,1.12226 1.59262,1.63786 0.55694,0.47544 1.03263,1.03513 1.55682,1.5441 0.43252,0.48116 0.93479,0.88881 1.47904,1.23589 0.58259,0.42245 1.27026,0.63567 1.91486,0.9388 0.72738,0.29839 1.45532,0.60097 2.19308,0.87344 0.86481,0.32538 1.71956,0.67652 2.5875,0.9935 0.83257,0.27853 1.62895,0.65588 2.44061,0.9897 0.60327,0.25151 1.16674,0.58141 1.7121,0.93901 0.57877,0.47482 1.04849,1.06158 1.54762,1.61479 0.51518,0.60713 0.94345,1.28259 1.32121,1.98187 0.44107,0.80638 0.72626,1.68658 0.70957,2.60856 -0.0815,0.831 -0.38576,1.50293 -1.08344,1.97291 -0.56674,0.36553 -1.19178,0.61558 -1.78244,0.93962 -0.5314,0.26843 -1.1119,0.42993 -1.69096,0.55978 -0.73065,0.24545 -1.50248,0.32122 -2.26634,0.38412 -0.62992,0.0432 -1.25133,0.14321 -1.81235,-0.19359 -0.46112,-0.25274 -0.66157,-0.70141 -0.85161,-1.16525 -0.21227,-0.50936 -0.17506,-1.02431 -0.0627,-1.55046 0.24799,-0.69817 0.74731,-1.21328 1.38505,-1.56616 0.65412,-0.27515 1.3827,-0.27516 2.08171,-0.29144 0.54226,-0.0173 1.11352,-0.0722 1.44936,0.42577 0.1758,0.53019 -0.2308,0.8428 -0.66949,1.02526 -0.51276,0.15494 -1.053,0.15804 -1.58392,0.16652 -0.36128,0.002 -0.18073,0.002 -0.54164,10e-4 0,0 0.003,-0.26622 0.003,-0.26622 v 0 c 0.35842,1.7e-4 0.17932,5.3e-4 0.5373,-0.001 0.49857,-0.008 1.00603,-0.009 1.48901,-0.14867 0.28061,-0.1094 0.60989,-0.28052 0.53877,-0.63702 -0.22123,-0.42842 -0.82754,-0.28514 -1.21898,-0.29967 -0.65697,0.0152 -1.34323,0.0119 -1.96099,0.26089 -0.57069,0.30782 -1.01673,0.77038 -1.24854,1.38527 -0.1047,0.474 -0.14172,0.93512 0.0486,1.3949 0.16843,0.41374 0.33405,0.81546 0.74628,1.0403 0.49804,0.31868 1.09054,0.17494 1.6525,0.1545 0.75204,-0.0618 1.51107,-0.13718 2.23026,-0.3794 0.55504,-0.12424 1.11167,-0.27872 1.62154,-0.53463 0.5821,-0.31914 1.19739,-0.56593 1.75676,-0.92415 0.62845,-0.40566 0.89093,-1.02467 0.96784,-1.75821 0.0277,-0.87482 -0.2657,-1.71257 -0.6777,-2.47733 -0.36719,-0.6812 -0.78495,-1.33842 -1.28528,-1.9305 -0.48381,-0.53699 -0.94041,-1.10445 -1.49689,-1.57046 -0.5313,-0.34871 -1.08,-0.67063 -1.66789,-0.91576 -0.80811,-0.33313 -1.60132,-0.70881 -2.43054,-0.98619 -0.8683,-0.31698 -1.72341,-0.66818 -2.58849,-0.9938 -0.74467,-0.27543 -1.48011,-0.57946 -2.21394,-0.88189 -0.65473,-0.30799 -1.35308,-0.52565 -1.94465,-0.95527 -0.55824,-0.35795 -1.07626,-0.77456 -1.52059,-1.26918 -0.52173,-0.50825 -0.99695,-1.06498 -1.55183,-1.53926 -0.56832,-0.525 -1.11703,-1.07626 -1.6181,-1.66587 -0.61577,-0.75895 -1.20148,-1.53698 -1.69138,-2.38503 -0.46495,-0.81621 -0.99688,-1.60709 -1.27778,-2.51118 -0.27661,-0.79196 -0.40209,-1.59556 -0.35334,-2.43693 0,0 0.26665,-10e-4 0.26665,-10e-4 z"
           inkscape:connector-curvature="0" />
        <path
           style="opacity:1;fill:#804d00;fill-opacity:1;stroke:none;stroke-width:0.2;stroke-miterlimit:4;stroke-dasharray:none;stroke-opacity:1"
           d="m 189.30448,108.5733 c -1e-5,13.0469 -11.70278,10.79457 -18.22623,10.79457 -6.52345,-1e-5 -4.06094,-5.49849 -4.06094,-18.54539 0,-13.046904 1.27926,-23.35624 7.80271,-23.356247 6.52345,-4e-6 14.48446,18.060152 14.48446,31.107067 z"
           id="path1657"
           inkscape:connector-curvature="0"
           sodipodi:nodetypes="sssss" />
      </g>
      <g
         transform="matrix(0.78339937,0,0,0.78339937,73.292611,-16.371253)"
         id="g1769">
        <path
           sodipodi:nodetypes="sssss"
           inkscape:connector-curvature="0"
           id="path1631"
           d="m 139.07478,108.19783 c -2.16286,-0.70522 -5.99458,0.51026 -5.19308,2.63932 0.54922,1.45897 2.42644,3.39371 2.63931,5.19309 0.26727,2.25917 4.48788,-0.47645 5.19309,-2.63932 0.70519,-2.16287 -0.47646,-4.48789 -2.63932,-5.19309 z"
           style="opacity:1;fill:#ffc500;fill-opacity:1;stroke:#804d00;stroke-width:1.21087;stroke-miterlimit:4;stroke-dasharray:none;stroke-opacity:1" />
        <path
           style="opacity:1;fill:#ffc500;fill-opacity:1;stroke:#804d00;stroke-width:1.21087;stroke-miterlimit:4;stroke-dasharray:none;stroke-opacity:1"
           d="m 100.81055,109.23726 c 2.16286,-0.70522 5.99458,0.51026 5.19308,2.63932 -0.54922,1.45897 -2.42644,3.39371 -2.63931,5.19309 -0.26727,2.25917 -4.487889,-0.47645 -5.193095,-2.63932 -0.705195,-2.16287 0.476454,-4.48789 2.639325,-5.19309 z"
           id="path1628"
           inkscape:connector-curvature="0"
           sodipodi:nodetypes="sssss" />
        <path
           style="opacity:1;fill:#804d00;fill-opacity:1;stroke:#804d00;stroke-width:0.151735;stroke-miterlimit:4;stroke-dasharray:none;stroke-opacity:1"
           id="path1638"
           d="m 100.5224,110.8379 c 0.22612,0.0957 0.41326,0.25033 0.58916,0.4182 0.21065,0.20546 0.41774,0.41497 0.61967,0.62904 0.18577,0.15798 0.31484,0.36209 0.45401,0.55862 0.12181,0.18807 0.26197,0.36256 0.35841,0.56554 0.0764,0.17636 0.10355,0.3579 0.0335,0.53896 -0.0772,0.14833 -0.21712,0.2394 -0.35844,0.3195 -0.13862,0.0723 -0.2923,0.0913 -0.44586,0.10154 -0.17186,0.0169 -0.31713,-0.0244 -0.41721,-0.16802 -0.0542,-0.12695 -0.1352,-0.24115 -0.19101,-0.36684 -0.0329,-0.16164 0.14196,-0.16983 0.2579,-0.16696 0.17319,0.0329 0.34502,0.0733 0.5116,0.13108 0.12622,0.0405 0.24007,0.12306 0.33952,0.20986 0.11292,0.10629 0.23064,0.20723 0.34757,0.30916 0.17965,0.14608 0.31584,0.33514 0.45111,0.52113 0.10955,0.17653 0.20581,0.36041 0.30429,0.54313 0.0513,0.0919 0.10942,0.17875 0.16709,0.26655 0,0 -0.0597,0.0391 -0.0597,0.0391 v 0 c -0.0588,-0.0895 -0.11792,-0.17819 -0.17016,-0.27185 -0.0969,-0.17996 -0.19174,-0.36103 -0.29912,-0.5352 -0.13207,-0.18178 -0.26493,-0.36667 -0.44054,-0.5093 -0.11692,-0.10192 -0.23473,-0.20295 -0.34774,-0.30918 -0.0925,-0.0813 -0.19851,-0.15876 -0.31618,-0.19616 -0.1599,-0.0555 -0.32469,-0.0939 -0.49063,-0.12706 -0.055,-0.002 -0.19639,-0.0193 -0.18954,0.0669 0.0525,0.1223 0.13409,0.23186 0.18479,0.35558 0.0813,0.12526 0.21015,0.15021 0.35402,0.13669 0.14297,-0.01 0.28638,-0.0261 0.41572,-0.0929 0.12661,-0.071 0.25418,-0.15193 0.32596,-0.28264 0.0664,-0.16084 0.035,-0.32548 -0.0313,-0.4826 -0.0939,-0.19958 -0.23365,-0.36978 -0.35219,-0.55492 -0.13731,-0.19389 -0.2642,-0.39539 -0.44775,-0.55103 -0.20102,-0.21323 -0.40718,-0.42197 -0.61701,-0.62649 -0.16923,-0.16187 -0.34913,-0.31101 -0.5669,-0.40325 0,0 0.027,-0.0663 0.027,-0.0663 z"
           inkscape:connector-curvature="0" />
        <path
           style="opacity:1;fill:#804d00;fill-opacity:1;stroke:none;stroke-width:1;stroke-miterlimit:4;stroke-dasharray:none;stroke-opacity:1"
           d="m 121.90418,96.966174 c 0.41033,3.359256 -0.19345,5.704086 -1.06298,7.783506 -0.34724,-0.0131 -0.69633,-0.0217 -1.04903,-0.0217 -9.9636,0 -18.2299,5.24219 -18.2299,15.20579 0,9.9636 8.07716,18.04076 18.04076,18.04076 9.9636,0 18.04076,-8.07716 18.04076,-18.04076 0,-6.63248 -3.49796,-11.16969 -8.77414,-13.46429 -0.1101,-2.17333 -1.61697,-4.34669 -2.98793,-6.520018 0.13373,2.191238 0.5523,4.667018 -0.8692,5.303038 -0.10139,-0.0214 -0.20426,-0.0404 -0.30644,-0.0605 0.72136,-3.15589 -1.49374,-5.577332 -2.8019,-8.225848 z"
           id="path1539"
           inkscape:connector-curvature="0" />
        <path
           style="opacity:1;fill:#ffc500;fill-opacity:1;stroke:none;stroke-width:0.387596;stroke-miterlimit:4;stroke-dasharray:none;stroke-opacity:1"
           d="m 123.84649,111.77207 c -1.74922,0.004 -3.45521,0.5439 -4.88762,1.54789 -1.40457,-0.94022 -3.0564,-1.44286 -4.74662,-1.44434 -4.72007,-2e-5 -9.49139,6.85017 -9.49137,11.57024 9e-5,4.71999 5.10283,8.69366 9.20789,11.28655 1.62334,1.02536 3.67759,1.26496 5.59474,1.3705 1.35595,0.0746 2.91477,-0.12139 4.0395,-0.5291 4.91668,-1.7823 11.75905,-6.47228 11.75903,-11.19227 -9e-5,-4.71991 -6.75564,-12.60938 -11.47555,-12.60947 z"
           id="path1534"
           inkscape:connector-curvature="0"
           sodipodi:nodetypes="ccccaascc" />
        <g
           id="g1614"
           transform="matrix(0.67810888,0,0,0.67810888,38.278571,42.925327)">
          <path
             sodipodi:nodetypes="cscsc"
             inkscape:connector-curvature="0"
             id="ellipse1601"
             d="m 122.67206,123.39565 c 0,1.27531 -1.51631,2.30915 -3.38676,2.30915 -1.87045,0 -3.38675,-1.03384 -3.38675,-2.30915 0,-1.27531 1.5163,-0.79724 3.38675,-0.79725 1.87045,0 3.38676,-0.47806 3.38676,0.79725 z"
             style="opacity:1;fill:#ff6600;fill-opacity:1;stroke:#ffffff;stroke-width:0.0374391;stroke-miterlimit:4;stroke-dasharray:none;stroke-opacity:1" />
          <path
             sodipodi:nodetypes="cccc"
             inkscape:connector-curvature="0"
             d="m 119.20411,130.57071 0.18679,-6.21414 m -4.00146,2.16875 c 0.0919,5.29271 7.11195,5.70896 7.63156,0.47466"
             style="fill:none;stroke:#ff6600;stroke-width:0.575986;stroke-linecap:butt;stroke-linejoin:miter;stroke-miterlimit:4;stroke-dasharray:none;stroke-opacity:1"
             id="path1603" />
        </g>
        <circle
           style="opacity:1;fill:#ffffff;fill-opacity:1;stroke:none;stroke-width:1;stroke-miterlimit:4;stroke-dasharray:none;stroke-opacity:1"
           id="path1616"
           cx="112.49516"
           cy="120.34338"
           r="2.7875743" />
        <circle
           r="2.7875743"
           cy="120.1544"
           cx="125.34635"
           id="circle1618"
           style="opacity:1;fill:#ffffff;fill-opacity:1;stroke:none;stroke-width:1;stroke-miterlimit:4;stroke-dasharray:none;stroke-opacity:1" />
        <circle
           style="opacity:1;fill:#2d2d2d;fill-opacity:1;stroke:none;stroke-width:0.661017;stroke-miterlimit:4;stroke-dasharray:none;stroke-opacity:1"
           id="circle1620"
           cx="126.29129"
           cy="121.09934"
           r="1.8426338" />
        <circle
           r="1.8426338"
           cy="121.00484"
           cx="113.15662"
           id="circle1622"
           style="opacity:1;fill:#2d2d2d;fill-opacity:1;stroke:none;stroke-width:0.661017;stroke-miterlimit:4;stroke-dasharray:none;stroke-opacity:1" />
        <path
           inkscape:connector-curvature="0"
           d="m 138.48617,109.70397 c -0.22611,0.0957 -0.41325,0.25033 -0.58915,0.4182 -0.21065,0.20546 -0.41774,0.41497 -0.61967,0.62904 -0.18577,0.15798 -0.31484,0.36209 -0.45401,0.55862 -0.12181,0.18807 -0.26197,0.36256 -0.35841,0.56554 -0.0764,0.17636 -0.10355,0.3579 -0.0335,0.53896 0.0772,0.14833 0.21712,0.2394 0.35844,0.3195 0.13862,0.0723 0.2923,0.0913 0.44586,0.10154 0.17186,0.0169 0.31713,-0.0244 0.41721,-0.16802 0.0542,-0.12695 0.1352,-0.24115 0.19101,-0.36684 0.0329,-0.16164 -0.14196,-0.16983 -0.2579,-0.16696 -0.17319,0.0329 -0.34502,0.0733 -0.5116,0.13108 -0.12622,0.0405 -0.24007,0.12306 -0.33952,0.20986 -0.11292,0.10629 -0.23064,0.20723 -0.34757,0.30916 -0.17965,0.14608 -0.31584,0.33514 -0.45111,0.52113 -0.10955,0.17653 -0.20581,0.36041 -0.30429,0.54313 -0.0513,0.0919 -0.10942,0.17875 -0.16709,0.26655 0,0 0.0597,0.0391 0.0597,0.0391 v 0 c 0.0588,-0.0895 0.11792,-0.17819 0.17016,-0.27185 0.0969,-0.17996 0.19174,-0.36103 0.29912,-0.5352 0.13207,-0.18178 0.26493,-0.36667 0.44054,-0.5093 0.11692,-0.10192 0.23473,-0.20295 0.34774,-0.30918 0.0925,-0.0813 0.19851,-0.15876 0.31618,-0.19616 0.1599,-0.0555 0.32469,-0.0939 0.49063,-0.12706 0.055,-0.002 0.19639,-0.0193 0.18954,0.0669 -0.0525,0.1223 -0.13409,0.23186 -0.18479,0.35558 -0.0813,0.12526 -0.21015,0.15021 -0.35402,0.13669 -0.14297,-0.01 -0.28638,-0.0261 -0.41572,-0.0929 -0.12661,-0.071 -0.25418,-0.15193 -0.32596,-0.28264 -0.0664,-0.16084 -0.035,-0.32548 0.0313,-0.4826 0.0939,-0.19958 0.23365,-0.36978 0.35219,-0.55492 0.13731,-0.19389 0.2642,-0.39539 0.44775,-0.55103 0.20102,-0.21323 0.40718,-0.42197 0.61701,-0.62649 0.16923,-0.16187 0.34912,-0.31101 0.56689,-0.40325 0,0 -0.027,-0.0663 -0.027,-0.0663 z"
           id="path1655"
           style="opacity:1;fill:#804d00;fill-opacity:1;stroke:#804d00;stroke-width:0.151735;stroke-miterlimit:4;stroke-dasharray:none;stroke-opacity:1" />
      </g>
      <ellipse
         ry="6.2686777"
         rx="3.8742559"
         cy="96.893684"
         cx="168.86086"
         id="path1828"
         style="opacity:1;fill:#ffc500;fill-opacity:1;stroke:none;stroke-width:2;stroke-miterlimit:4;stroke-dasharray:none;stroke-opacity:1" />
    </g>
  </g>
</svg>
