<?xml version="1.0" encoding="UTF-8" standalone="no"?>
<!-- Created with Inkscape (http://www.inkscape.org/) -->

<svg
   width="12mm"
   height="12mm"
   viewBox="0 0 12 12"
   version="1.1"
   id="svg116"
   inkscape:version="1.2.2 (1:1.2.2+202305151914+b0a8486541)"
   sodipodi:docname="3.svg"
   xmlns:inkscape="http://www.inkscape.org/namespaces/inkscape"
   xmlns:sodipodi="http://sodipodi.sourceforge.net/DTD/sodipodi-0.dtd"
   xmlns="http://www.w3.org/2000/svg"
   xmlns:svg="http://www.w3.org/2000/svg">
  <sodipodi:namedview
     id="namedview118"
     pagecolor="#ffffff"
     bordercolor="#000000"
     borderopacity="0.25"
     inkscape:showpageshadow="2"
     inkscape:pageopacity="0.0"
     inkscape:pagecheckerboard="0"
     inkscape:deskcolor="#d1d1d1"
     inkscape:document-units="mm"
     showgrid="false"
     inkscape:zoom="9.9377471"
     inkscape:cx="23.848464"
     inkscape:cy="23.194392"
     inkscape:window-width="1366"
     inkscape:window-height="673"
     inkscape:window-x="0"
     inkscape:window-y="0"
     inkscape:window-maximized="1"
     inkscape:current-layer="layer2" />
  <defs
     id="defs113" />
  <g
     inkscape:groupmode="layer"
     id="layer3"
     inkscape:label="Layer 1">
    <ellipse
       style="fill:#666666;fill-opacity:1;stroke-width:0.0653693"
       id="path1120"
       cx="5.9794245"
       cy="5.9403191"
       rx="5.8915091"
       ry="5.8260136" />
  </g>
  <g
     inkscape:groupmode="layer"
     id="layer2"
     inkscape:label="Layer 2">
    <g
       id="g1532"
       transform="matrix(0.16559681,8.3289263e-4,-7.3618497e-4,0.18734978,-8.0073547,-13.568469)">
      <g
         transform="matrix(0.94539984,0,0,0.93349484,3.6023032,7.8359485)"
         id="g1389">
        <g
           transform="matrix(0.60847192,0,0,0.53471181,53.326634,33.115566)"
           id="g1162"
           style="fill:#ffa500;fill-opacity:1">
          <path
             style="opacity:1;fill:#ffa500;fill-opacity:1;stroke:none;stroke-width:4.09276;stroke-miterlimit:4;stroke-dasharray:none;stroke-opacity:1"
             d="m 198.57227,442.51953 c -66.27436,0 -120.000264,31.50013 -120.000004,70.35742 0.04011,15.28126 7.686757,13.9495 23.407144,26.13819 l 0.87801,95.64697 c 10.47619,13.12887 19.52383,3.91474 30,-3.57031 l 0.92969,-59.07813 c 9.45572,3.57604 19.72229,6.35456 30.49805,8.25391 v 68.68164 c 10.47619,13.12887 19.52383,3.91279 30,-3.57227 l 0.98046,-62.24023 c 1.1014,0.0415 2.20372,0.0741 3.30665,0.0977 6.94382,-0.003 13.87413,-0.35895 20.71289,-1.06446 v 53.92188 c 10.47619,13.12887 19.52383,3.91278 30,-3.57227 l 0.88476,-56.19531 c 8.33479,-2.31171 16.18738,-5.17894 23.40235,-8.54492 v 53.3125 c 10.47618,13.12887 19.52383,3.91278 30,-3.57227 l 1.13085,-71.91015 c 9.08105,-10.09014 13.84085,-21.32371 13.86915,-32.73243 -0.0242,-0.32433 -0.0522,-0.64855 -0.084,-0.97265 l 28.19371,20.16939 c 0,0 9.24995,15.92025 16.67857,18.43658 7.24393,2.45377 22.25642,-4.93005 22.25642,-4.93005 l 27.4161,-21.41744 c -7.42406,-22.93364 -40.91287,-15.79795 -48.04631,-7.74091 -8.3226,9.40016 -18.69618,-8.48055 -23.82392,-10.43439 -9.55617,-3.64122 -19.15582,-8.4357 -25.23707,-7.67303 -11.73219,-32.51475 -60.66946,-55.78165 -117.3535,-55.79496 z"
             transform="scale(0.26458333)"
             id="path1158"
             inkscape:connector-curvature="0"
             sodipodi:nodetypes="ccccccccccccccccccccccsccsscc" />
        </g>
        <path
           sodipodi:nodetypes="cccc"
           inkscape:connector-curvature="0"
           id="path1294"
           d="m 84.883654,95.771245 c 3.564816,4.779505 1.65194,10.997555 2.020236,15.550525 0.651052,-4.68251 2.813429,-10.01974 1.161862,-15.393032 -1.640972,-0.157858 -2.518508,-0.252925 -3.182098,-0.157493 z"
           style="fill:#2d2d2d;stroke:none;stroke-width:0.226374px;stroke-linecap:butt;stroke-linejoin:miter;stroke-opacity:1" />
        <path
           sodipodi:nodetypes="cccc"
           inkscape:connector-curvature="0"
           id="path1292"
           d="m 81.511354,102.36605 c 2.217569,2.9732 1.137538,6.50732 1.366645,9.33959 0.405,-2.91285 1.530324,-5.60962 0.502932,-8.95219 -1.020801,-0.0982 -1.456777,-0.44676 -1.869577,-0.3874 z"
           style="fill:#2d2d2d;stroke:none;stroke-width:0.140821px;stroke-linecap:butt;stroke-linejoin:miter;stroke-opacity:1" />
        <path
           style="fill:#2d2d2d;stroke:none;stroke-width:0.226374px;stroke-linecap:butt;stroke-linejoin:miter;stroke-opacity:1"
           d="m 89.242677,96.024595 c 3.564816,4.779505 1.828631,10.460725 2.196927,15.013695 0.651052,-4.68251 2.460047,-9.01765 0.80848,-14.390947 -1.640972,-0.157858 -2.341817,-0.71818 -3.005407,-0.622748 z"
           id="path1260"
           inkscape:connector-curvature="0"
           sodipodi:nodetypes="cccc" />
        <path
           sodipodi:nodetypes="cccc"
           inkscape:connector-curvature="0"
           id="path1262"
           d="m 94.917154,97.157848 c 2.571694,4.541942 1.920844,10.743392 2.172212,15.285312 0.722728,-4.62297 1.740184,-9.16173 0.774796,-14.267022 -1.572604,-0.156499 -2.311066,-1.1129 -2.947008,-1.01829 z"
           style="fill:#2d2d2d;stroke:none;stroke-width:0.220652px;stroke-linecap:butt;stroke-linejoin:miter;stroke-opacity:1" />
        <path
           style="fill:#2d2d2d;stroke:none;stroke-width:0.0991769px;stroke-linecap:butt;stroke-linejoin:miter;stroke-opacity:1"
           d="m 105.21417,103.83495 c 1.61688,0.96901 -0.91472,1.89117 2.05693,3.26107 l 1.26822,-2.21434 c -1.10564,-0.51971 -2.71022,-1.09877 -3.32515,-1.04673 z"
           id="path1264"
           inkscape:connector-curvature="0"
           sodipodi:nodetypes="cccc" />
        <path
           sodipodi:nodetypes="cccc"
           inkscape:connector-curvature="0"
           id="path1266"
           d="m 109.75775,106.17356 c 1.61688,0.96901 -1.15431,3.71689 1.62835,4.1891 l 1.19329,-4.45312 c -1.33803,1.28079 -2.38465,0.27136 -2.82164,0.26402 z"
           style="fill:#2d2d2d;stroke:none;stroke-width:0.0991769px;stroke-linecap:butt;stroke-linejoin:miter;stroke-opacity:1" />
        <path
           style="fill:#2d2d2d;stroke:none;stroke-width:0.0991769px;stroke-linecap:butt;stroke-linejoin:miter;stroke-opacity:1"
           d="m 113.96725,105.37175 c 1.61688,0.96901 -1.04836,3.22751 1.92329,4.59741 l 1.53549,-3.91244 c -1.16923,-1.51641 -3.00704,-0.6987 -3.45878,-0.68497 z"
           id="path1268"
           inkscape:connector-curvature="0"
           sodipodi:nodetypes="cccc" />
        <path
           style="fill:#2d2d2d;stroke:none;stroke-width:0.0622287px;stroke-linecap:butt;stroke-linejoin:miter;stroke-opacity:1"
           d="m 70.046405,116.66126 c 0.634476,-0.99818 2.312315,0.78536 2.654417,-0.95223 l -2.773461,-0.82196 c -0.140391,0.9756 -0.132002,1.53308 0.119044,1.77419 z"
           id="path1270"
           inkscape:connector-curvature="0"
           sodipodi:nodetypes="cccc" />
        <path
           sodipodi:nodetypes="cccc"
           inkscape:connector-curvature="0"
           id="path1272"
           d="m 70.088082,119.26796 c 0.843764,-0.99818 3.075056,0.78536 3.530003,-0.95223 l -3.688315,-0.82196 c -0.1867,0.9756 -0.175544,1.53308 0.158312,1.77419 z"
           style="fill:#2d2d2d;stroke:none;stroke-width:0.0717619px;stroke-linecap:butt;stroke-linejoin:miter;stroke-opacity:1" />
        <path
           style="fill:#2d2d2d;stroke:none;stroke-width:0.0717619px;stroke-linecap:butt;stroke-linejoin:miter;stroke-opacity:1"
           d="m 70.088082,121.91379 c 0.843764,-0.99818 3.075056,0.78536 3.530003,-0.95223 L 69.92977,120.1396 c -0.1867,0.9756 -0.175544,1.53308 0.158312,1.77419 z"
           id="path1274"
           inkscape:connector-curvature="0"
           sodipodi:nodetypes="cccc" />
        <path
           sodipodi:nodetypes="cccc"
           inkscape:connector-curvature="0"
           id="path1276"
           d="m 84.555401,117.05863 c -0.419894,0.99818 -1.530276,-0.78536 -1.756675,0.95223 l 1.835455,0.82196 c 0.09291,-0.9756 0.08736,-1.53308 -0.07878,-1.77419 z"
           style="fill:#2d2d2d;stroke:none;stroke-width:0.0506235px;stroke-linecap:butt;stroke-linejoin:miter;stroke-opacity:1" />
        <path
           style="fill:#2d2d2d;stroke:none;stroke-width:0.062693px;stroke-linecap:butt;stroke-linejoin:miter;stroke-opacity:1"
           d="m 84.496366,119.39806 c -0.643975,0.99818 -2.346944,-0.78536 -2.694171,0.95223 l 2.815004,0.82196 c 0.142494,-0.9756 0.133976,-1.53308 -0.120833,-1.77419 z"
           id="path1278"
           inkscape:connector-curvature="0"
           sodipodi:nodetypes="cccc" />
        <path
           sodipodi:nodetypes="cccc"
           inkscape:connector-curvature="0"
           id="path1280"
           d="m 84.567477,122.04389 c -0.429393,0.99818 -1.564905,-0.78536 -1.79643,0.95223 l 1.876999,0.82196 c 0.09501,-0.9756 0.08933,-1.53308 -0.08057,-1.77419 z"
           style="fill:#2d2d2d;stroke:none;stroke-width:0.0511931px;stroke-linecap:butt;stroke-linejoin:miter;stroke-opacity:1" />
        <path
           sodipodi:nodetypes="cccc"
           inkscape:connector-curvature="0"
           id="path1282"
           d="m 93.378806,117.88616 c -0.643975,0.99818 -2.346944,-0.78536 -2.694171,0.95223 l 2.815004,0.82196 c 0.142494,-0.9756 0.133976,-1.53308 -0.120833,-1.77419 z"
           style="fill:#2d2d2d;stroke:none;stroke-width:0.062693px;stroke-linecap:butt;stroke-linejoin:miter;stroke-opacity:1" />
        <path
           style="fill:#2d2d2d;stroke:none;stroke-width:0.0511931px;stroke-linecap:butt;stroke-linejoin:miter;stroke-opacity:1"
           d="m 93.449917,120.53199 c -0.429393,0.99818 -1.564905,-0.78536 -1.79643,0.95223 l 1.876999,0.82196 c 0.09501,-0.9756 0.08933,-1.53308 -0.08057,-1.77419 z"
           id="path1284"
           inkscape:connector-curvature="0"
           sodipodi:nodetypes="cccc" />
        <path
           style="fill:#2d2d2d;stroke:none;stroke-width:0.0506235px;stroke-linecap:butt;stroke-linejoin:miter;stroke-opacity:1"
           d="m 102.13129,113.18437 c -0.41989,0.99818 -1.53027,-0.78536 -1.75667,0.95223 l 1.83545,0.82196 c 0.0929,-0.9756 0.0874,-1.53308 -0.0788,-1.77419 z"
           id="path1286"
           inkscape:connector-curvature="0"
           sodipodi:nodetypes="cccc" />
        <path
           sodipodi:nodetypes="cccc"
           inkscape:connector-curvature="0"
           id="path1288"
           d="m 102.07226,115.5238 c -0.64398,0.99818 -2.346945,-0.78536 -2.694172,0.95223 l 2.815002,0.82196 c 0.1425,-0.9756 0.13398,-1.53308 -0.12083,-1.77419 z"
           style="fill:#2d2d2d;stroke:none;stroke-width:0.062693px;stroke-linecap:butt;stroke-linejoin:miter;stroke-opacity:1" />
        <path
           style="fill:#2d2d2d;stroke:none;stroke-width:0.0511931px;stroke-linecap:butt;stroke-linejoin:miter;stroke-opacity:1"
           d="m 102.14337,118.16963 c -0.42939,0.99818 -1.56491,-0.78536 -1.79643,0.95223 l 1.877,0.82196 c 0.095,-0.9756 0.0893,-1.53308 -0.0806,-1.77419 z"
           id="path1290"
           inkscape:connector-curvature="0"
           sodipodi:nodetypes="cccc" />
      </g>
      <g
         transform="translate(2.4339146,1.723821)"
         id="g1485">
        <ellipse
           style="opacity:1;fill:#ffc500;fill-opacity:1;stroke:none;stroke-width:0.983044;stroke-miterlimit:4;stroke-dasharray:none;stroke-opacity:1"
           id="path1323"
           cx="70.624611"
           cy="96.506714"
           rx="13.968849"
           ry="12.602804" />
        <g
           transform="matrix(0.73125849,0,0,0.54310086,20.105995,32.851159)"
           id="g1168"
           style="fill:#ffc500;fill-opacity:1">
          <path
             sodipodi:nodetypes="sssss"
             inkscape:connector-curvature="0"
             id="path1166"
             d="m 59.241164,93.584207 c 2.73846,2.992447 1.361777,5.562285 -0.487657,7.254753 -1.849433,1.69246 -4.534527,3.25082 -7.27299,0.25837 -2.738461,-2.992442 -2.452897,-6.888857 -0.603465,-8.58132 1.849434,-1.692463 5.625648,-1.924247 8.364112,1.068197 z"
             style="opacity:1;fill:#ffc500;fill-opacity:1;stroke:none;stroke-width:1.54959;stroke-miterlimit:4;stroke-dasharray:none;stroke-opacity:1" />
        </g>
        <path
           sodipodi:nodetypes="sssss"
           inkscape:connector-curvature="0"
           id="path1170"
           d="m 62.342461,85.29428 c 1.003839,0.984959 0.622484,1.458838 -0.05546,2.01591 -0.677948,0.557071 -1.395763,0.986382 -2.399603,0.0014 -1.00384,-0.984959 -1.268028,-2.235023 -0.590081,-2.792095 0.677949,-0.557071 2.041308,-0.2102 3.045148,0.774759 z"
           style="opacity:1;fill:#ff9900;fill-opacity:1;stroke:none;stroke-width:0.538261;stroke-miterlimit:4;stroke-dasharray:none;stroke-opacity:1" />
        <g
           id="g1176"
           transform="matrix(-0.73125849,0,0,0.54310086,121.08185,32.660057)"
           style="fill:#ffc500;fill-opacity:1">
          <path
             style="opacity:1;fill:#ffc500;fill-opacity:1;stroke:none;stroke-width:1.54959;stroke-miterlimit:4;stroke-dasharray:none;stroke-opacity:1"
             d="m 59.241164,93.584207 c 2.73846,2.992447 1.361777,5.562285 -0.487657,7.254753 -1.849433,1.69246 -4.534527,3.25082 -7.27299,0.25837 -2.738461,-2.992442 -2.452897,-6.888857 -0.603465,-8.58132 1.849434,-1.692463 5.625648,-1.924247 8.364112,1.068197 z"
             id="path1174"
             inkscape:connector-curvature="0"
             sodipodi:nodetypes="sssss" />
        </g>
        <path
           style="opacity:1;fill:#ff9900;fill-opacity:1;stroke:none;stroke-width:0.538261;stroke-miterlimit:4;stroke-dasharray:none;stroke-opacity:1"
           d="m 78.845389,85.103178 c -1.003839,0.984959 -0.622484,1.458838 0.05546,2.01591 0.677949,0.55707 1.395764,0.986382 2.399604,0.0014 1.003839,-0.984959 1.268028,-2.235024 0.59008,-2.792095 -0.677949,-0.557072 -2.041308,-0.2102 -3.045148,0.774759 z"
           id="path1178"
           inkscape:connector-curvature="0"
           sodipodi:nodetypes="sssss" />
        <path
           style="opacity:1;fill:#ffffff;fill-opacity:1;stroke:#ffffff;stroke-width:0.850982;stroke-miterlimit:4;stroke-dasharray:none;stroke-opacity:1"
           d="m 64.845856,94.302921 c 0.165001,1.420629 0.570992,2.546796 2.153142,2.398632 1.582152,-0.148154 2.308961,-1.38039 2.143967,-2.801013 -0.164997,-1.42064 -1.159328,-2.491706 -2.741482,-2.343552 -1.582154,0.148153 -1.720627,1.325305 -1.555627,2.745933 z"
           id="path1244"
           inkscape:connector-curvature="0"
           sodipodi:nodetypes="sssss" />
        <path
           sodipodi:nodetypes="sssss"
           inkscape:connector-curvature="0"
           id="path1246"
           d="m 72.753275,94.480425 c 0.164999,1.420629 0.570991,2.546796 2.15314,2.398632 1.582151,-0.148154 2.308962,-1.380389 2.143966,-2.801013 -0.164996,-1.42064 -1.159327,-2.491706 -2.741479,-2.343552 -1.582154,0.148154 -1.720628,1.325305 -1.555627,2.745933 z"
           style="opacity:1;fill:#ffffff;fill-opacity:1;stroke:#ffffff;stroke-width:0.850982;stroke-miterlimit:4;stroke-dasharray:none;stroke-opacity:1" />
        <path
           style="opacity:1;fill:#ffff3e;fill-opacity:1;stroke:none;stroke-width:0.980116;stroke-miterlimit:4;stroke-dasharray:none;stroke-opacity:1"
           d="m 77.178668,100.35094 a 6.7852927,4.1419781 0 0 1 -6.785291,4.14199 6.7852927,4.1419781 0 0 1 -6.785294,-4.14199 6.7852927,4.1419781 0 0 1 6.785294,-4.141975 6.7852927,4.1419781 0 0 1 6.785291,4.141975 z"
           id="path1229"
           inkscape:connector-curvature="0" />
        <ellipse
           ry="2.0447989"
           rx="3.3400102"
           cy="98.73288"
           cx="70.625565"
           id="ellipse1186"
           style="opacity:1;fill:#2d2d2d;fill-opacity:1;stroke:none;stroke-width:0.034987;stroke-miterlimit:4;stroke-dasharray:none;stroke-opacity:1" />
        <path
           inkscape:connector-curvature="0"
           d="m 70.638692,103.91507 0.09102,-4.331279 m -2.548381,1.920469 c 1.86668,3.45809 3.44199,2.99183 4.823718,-0.0817"
           style="fill:none;stroke:#2d2d2d;stroke-width:0.538261;stroke-linecap:butt;stroke-linejoin:miter;stroke-miterlimit:4;stroke-dasharray:none;stroke-opacity:1"
           id="path1188" />
        <path
           style="opacity:1;fill:#2d2d2d;fill-opacity:1;stroke:none;stroke-width:0.716152;stroke-miterlimit:4;stroke-dasharray:none;stroke-opacity:1"
           d="m 72.840042,94.745931 c 0.138858,1.195543 0.480524,2.14328 1.811997,2.01859 1.331474,-0.124679 1.943129,-1.161679 1.804277,-2.357218 -0.138856,-1.195554 -0.975645,-2.096919 -2.30712,-1.972239 -1.331477,0.124679 -1.448011,1.115322 -1.309154,2.310867 z"
           id="path1190"
           inkscape:connector-curvature="0"
           sodipodi:nodetypes="sssss" />
        <path
           sodipodi:nodetypes="sssss"
           inkscape:connector-curvature="0"
           id="path1192"
           d="m 64.613073,94.926106 c 0.138857,1.195543 0.480525,2.14328 1.811998,2.018591 1.331474,-0.12468 1.943129,-1.16168 1.804274,-2.357219 -0.138854,-1.195554 -0.975642,-2.09692 -2.30712,-1.972239 -1.331476,0.12468 -1.44801,1.115323 -1.309152,2.310867 z"
           style="opacity:1;fill:#2d2d2d;fill-opacity:1;stroke:none;stroke-width:0.716152;stroke-miterlimit:4;stroke-dasharray:none;stroke-opacity:1" />
        <path
           sodipodi:nodetypes="cc"
           inkscape:connector-curvature="0"
           id="path1234"
           d="m 81.500173,98.293521 c -2.490035,-1.001443 -4.521112,-0.315225 -6.461745,0.703576"
           style="fill:none;stroke:#ff6600;stroke-width:0.830643;stroke-linecap:butt;stroke-linejoin:miter;stroke-miterlimit:4;stroke-dasharray:none;stroke-opacity:1" />
        <path
           sodipodi:nodetypes="cc"
           inkscape:connector-curvature="0"
           id="path1240"
           d="m 60.995044,100.94677 c 1.76106,-1.024722 3.394869,-0.71815 5.0036,-0.14924"
           style="fill:none;stroke:#ff6600;stroke-width:0.638876;stroke-linecap:butt;stroke-linejoin:miter;stroke-miterlimit:4;stroke-dasharray:none;stroke-opacity:1" />
        <path
           style="fill:none;stroke:#ff6600;stroke-width:0.638876;stroke-linecap:butt;stroke-linejoin:miter;stroke-miterlimit:4;stroke-dasharray:none;stroke-opacity:1"
           d="m 80.476458,101.28148 c -1.761061,-1.02472 -3.394869,-0.71816 -5.0036,-0.14925"
           id="path1242"
           inkscape:connector-curvature="0"
           sodipodi:nodetypes="cc" />
        <path
           id="path1300"
           style="fill:#2d2d2d;stroke:none;stroke-width:0.174753px;stroke-linecap:butt;stroke-linejoin:miter;stroke-opacity:1"
           d="m 75.147942,90.5497 c -3.893705,-2.607661 -8.258428,-0.686795 -11.967588,-0.9562 3.814692,-0.47625 7.346394,-1.799528 11.72384,-0.591403 0.128601,1.200371 0.32149,1.062186 0.243748,1.547603 z m 0.30793,-4.068271 c -3.893705,-2.607661 -8.258428,-0.627627 -11.967587,-0.897031 3.726239,-0.526793 5.719792,-2.728961 11.723829,-0.591404 0.12861,1.200371 0.3215,1.003019 0.243758,1.488435 z m -2.808078,-1.838443 c -2.904136,3.496211 -2.544043,4.516118 -2.844075,7.846619 -0.530396,-3.42526 -1.542864,-5.235551 0.527472,-7.805255 1.336839,-0.115474 1.775999,-0.111173 2.316603,-0.04136 z"
           inkscape:connector-curvature="0"
           sodipodi:nodetypes="cccccccccccc" />
        <path
           style="fill:#2d2d2d;stroke:none;stroke-width:0.0483465px;stroke-linecap:butt;stroke-linejoin:miter;stroke-opacity:1"
           d="m 68.791196,91.295828 c -0.743096,-0.978012 -1.854321,-0.688074 -2.677718,-0.883585 0.88612,-0.04933 1.752531,-0.388295 2.67785,0.138328 -0.03358,0.402678 0.04274,0.586127 -1.32e-4,0.745257 z"
           id="path1303"
           inkscape:connector-curvature="0"
           sodipodi:nodetypes="cccc" />
        <path
           sodipodi:nodetypes="cccc"
           inkscape:connector-curvature="0"
           id="path1305"
           d="m 71.72802,91.532501 c 0.743097,-0.978013 1.85432,-0.688074 2.677717,-0.883585 -0.88612,-0.04933 -1.75253,-0.388295 -2.677849,0.138328 0.03358,0.402678 -0.04274,0.586127 1.32e-4,0.745257 z"
           style="fill:#2d2d2d;stroke:none;stroke-width:0.0483465px;stroke-linecap:butt;stroke-linejoin:miter;stroke-opacity:1" />
        <path
           id="path1311"
           style="fill:#2d2d2d;stroke:none;stroke-width:0.0733831px;stroke-linecap:butt;stroke-linejoin:miter;stroke-opacity:1"
           d="m 57.284006,99.541923 c 1.15453,-1.538605 2.119588,-0.806926 3.233883,-0.974844 -1.150925,-0.268741 -2.222245,-1.034598 -3.531481,-0.3148 -0.03085,0.703749 0.271031,1.005402 0.297598,1.289644 z m -0.562748,-2.141409 c 1.15453,-1.538603 2.709297,-0.968078 3.823591,-1.135996 -1.150925,-0.268742 -2.581198,-1.103664 -3.890434,-0.383867 -0.03084,0.703749 0.04028,1.235627 0.06684,1.519863 z m 0.05773,-2.072367 c 1.154529,-1.538603 2.683656,-0.737858 3.797951,-0.905775 -1.150925,-0.268742 -2.350443,-1.195754 -3.65968,-0.475955 -0.03085,0.703749 -0.164838,1.097494 -0.138271,1.38173 z"
           inkscape:connector-curvature="0"
           sodipodi:nodetypes="cccccccccccc" />
        <path
           style="fill:none;stroke:#ff6600;stroke-width:0.830643;stroke-linecap:butt;stroke-linejoin:miter;stroke-miterlimit:4;stroke-dasharray:none;stroke-opacity:1"
           d="m 59.71324,98.544549 c 2.490035,-1.001443 4.521112,-0.315224 6.461746,0.703577"
           id="path1232"
           inkscape:connector-curvature="0"
           sodipodi:nodetypes="cc" />
        <path
           sodipodi:nodetypes="cccccccccccc"
           inkscape:connector-curvature="0"
           d="m 83.982711,99.625599 c -1.154531,-1.538605 -2.119588,-0.806925 -3.233883,-0.974844 1.150925,-0.268741 2.222245,-1.034598 3.531481,-0.314799 0.03085,0.703749 -0.271032,1.005402 -0.297598,1.289643 z m 0.562748,-2.141409 c -1.154531,-1.538602 -2.709297,-0.968077 -3.823592,-1.135996 1.150925,-0.268742 2.581199,-1.103663 3.890436,-0.383866 0.03084,0.703749 -0.04028,1.235626 -0.06684,1.519862 z m -0.05773,-2.072366 c -1.15453,-1.538604 -2.683657,-0.737859 -3.797952,-0.905776 1.150926,-0.268742 2.350444,-1.195753 3.65968,-0.475954 0.03085,0.703749 0.164838,1.097493 0.138272,1.38173 z"
           style="fill:#2d2d2d;stroke:none;stroke-width:0.0733831px;stroke-linecap:butt;stroke-linejoin:miter;stroke-opacity:1"
           id="path1314" />
      </g>
    </g>
  </g>
</svg>
