<?xml version="1.0" encoding="UTF-8" standalone="no"?>
<!-- Created with Inkscape (http://www.inkscape.org/) -->

<svg
   width="12mm"
   height="12mm"
   viewBox="0 0 46.320064 46.320064"
   version="1.1"
   id="svg116"
   inkscape:version="1.2.2 (1:1.2.2+202305151914+b0a8486541)"
   sodipodi:docname="4.svg"
   xmlns:inkscape="http://www.inkscape.org/namespaces/inkscape"
   xmlns:sodipodi="http://sodipodi.sourceforge.net/DTD/sodipodi-0.dtd"
   xmlns="http://www.w3.org/2000/svg"
   xmlns:svg="http://www.w3.org/2000/svg">
  <sodipodi:namedview
     id="namedview118"
     pagecolor="#ffffff"
     bordercolor="#000000"
     borderopacity="0.25"
     inkscape:showpageshadow="2"
     inkscape:pageopacity="0.0"
     inkscape:pagecheckerboard="0"
     inkscape:deskcolor="#d1d1d1"
     inkscape:document-units="mm"
     showgrid="false"
     inkscape:zoom="7.0270484"
     inkscape:cx="27.180687"
     inkscape:cy="27.109533"
     inkscape:window-width="1366"
     inkscape:window-height="673"
     inkscape:window-x="0"
     inkscape:window-y="0"
     inkscape:window-maximized="1"
     inkscape:current-layer="layer3" />
  <defs
     id="defs113" />
  <g
     inkscape:groupmode="layer"
     id="layer3"
     inkscape:label="Layer 1">
    <ellipse
       style="fill:#fda4af;fill-opacity:1;stroke-width:0.253281"
       id="path1535"
       cx="23.364027"
       cy="23.241804"
       rx="22.975861"
       ry="22.743078" />
  </g>
  <g
     inkscape:groupmode="layer"
     id="layer2"
     inkscape:label="Layer 2">
    <g
       id="g1156"
       transform="matrix(0.16350569,0,0,0.17886503,16.334372,-7.0588951)">
      <path
         sodipodi:nodetypes="cscsccscsccscsccscsccscscsssss"
         inkscape:connector-curvature="0"
         d="m 57.043728,168.03588 c 4e-6,2.60938 -2.115318,4.72471 -4.724702,4.72471 -2.609384,0 -4.724707,-2.11533 -4.724703,-4.72471 10e-7,-2.60938 2.115323,-4.7247 4.724703,-4.7247 2.60938,0 4.724701,2.11532 4.724702,4.7247 z m -10.583334,4.15774 c -10e-7,2.60938 -2.115322,4.7247 -4.724702,4.7247 -2.60938,0 -4.724702,-2.11532 -4.724703,-4.7247 10e-7,-2.60938 2.115323,-4.7247 4.724703,-4.7247 2.60938,0 4.724701,2.11532 4.724702,4.7247 z m -12.095239,2.64584 c -1e-6,2.60938 -2.115323,4.7247 -4.724703,4.7247 -2.60938,0 -4.724701,-2.11532 -4.724702,-4.7247 -4e-6,-2.60938 2.115318,-4.72471 4.724702,-4.72471 2.609384,0 4.724707,2.11533 4.724703,4.72471 z m -11.339283,2.64583 c -1e-6,2.60938 -2.115323,4.7247 -4.724703,4.7247 -2.60938,0 -4.724701,-2.11532 -4.724702,-4.7247 1e-6,-2.60938 2.115322,-4.7247 4.724702,-4.7247 2.60938,0 4.724702,2.11532 4.724703,4.7247 z m -11.339287,1.13393 c -10e-7,2.60938 -2.1153224,4.7247 -4.7247026,4.7247 -2.60938,0 -4.7247007,-2.11532 -4.724702,-4.7247 1.3e-6,-2.60938 2.115322,-4.7247 4.724702,-4.7247 2.6093802,0 4.7247016,2.11532 4.7247026,4.7247 z m 59.342266,3.77976 c -0.30828,7.40423 -24.03005,13.41815 -53.672622,13.41815 -29.642569,0 -85.422617,-10.54322 -85.422617,-17.95386 0,-7.41063 69.7572884,9.44893 97.517858,-0.94494 30.254881,-11.32777 42.920421,-26.77626 41.577381,5.48065 z"
         style="opacity:1;fill:#9ade00;fill-opacity:1;stroke:none;stroke-width:1;stroke-miterlimit:4;stroke-dasharray:none;stroke-opacity:1"
         id="circle1100" />
      <path
         sodipodi:nodetypes="ssssssssss"
         inkscape:connector-curvature="0"
         d="m 77.914606,160.50642 c 1.257953,5.46626 -2.153552,10.91731 -7.619809,12.17526 -5.466258,1.25795 -10.917309,-2.15355 -12.175262,-7.61981 -1.257953,-5.46626 2.153552,-10.91731 7.619809,-12.17526 5.466258,-1.25795 10.917309,2.15355 12.175262,7.61981 z m 88.431234,-15.15596 c 1.36011,7.28476 -23.47919,12.30222 -47.78427,29.27118 -28.887492,20.16824 -55.164633,8.19204 -56.826609,-5.19701 -0.912873,-7.3542 38.141025,-3.73577 62.863439,-20.09072 26.94375,-17.82445 35.82205,-35.71991 41.74744,-3.98345 z"
         style="opacity:1;fill:#009100;fill-opacity:1;stroke:none;stroke-width:1;stroke-miterlimit:4;stroke-dasharray:none;stroke-opacity:1"
         id="path1108" />
      <path
         inkscape:connector-curvature="0"
         d="m 12.503431,214.42579 c -2.191209,-6.51352 -4.9995641,-11.7043 -2.6161871,-14.41986 2.3306451,-2.65549 5.3164481,-4.13208 8.7104931,-5.26534 6.864843,-2.29214 -12.2382121,16.15128 4.097869,24.22862 -1.77813,2.78272 -6.39998,6.62078 -10.192175,-4.54342 z"
         style="opacity:1;fill:#009100;fill-opacity:1;stroke:none;stroke-width:0.669196;stroke-miterlimit:4;stroke-dasharray:none;stroke-opacity:1"
         id="path1127"
         sodipodi:nodetypes="csscc" />
      <path
         inkscape:connector-curvature="0"
         d="m 32.914145,211.024 c -2.191209,-6.51352 -4.999564,-11.7043 -2.616187,-14.41986 2.330645,-2.65549 5.316448,-4.13208 8.710493,-5.26534 6.864843,-2.29214 -12.238212,16.15128 4.097869,24.22862 -1.77813,2.78272 -6.39998,6.62078 -10.192175,-4.54342 z"
         style="opacity:1;fill:#009100;fill-opacity:1;stroke:none;stroke-width:0.669196;stroke-miterlimit:4;stroke-dasharray:none;stroke-opacity:1"
         id="path1129"
         sodipodi:nodetypes="csscc" />
      <path
         inkscape:connector-curvature="0"
         d="m 59.750455,209.13412 c -2.191209,-6.51352 -4.999564,-11.7043 -2.616187,-14.41986 2.330645,-2.65549 5.316448,-4.13208 8.710493,-5.26534 6.864843,-2.29214 -12.238212,16.15128 4.097869,24.22862 -1.77813,2.78272 -6.39998,6.62078 -10.192175,-4.54342 z"
         style="opacity:1;fill:#009100;fill-opacity:1;stroke:none;stroke-width:0.669196;stroke-miterlimit:4;stroke-dasharray:none;stroke-opacity:1"
         id="path1131"
         sodipodi:nodetypes="csscc" />
      <path
         sodipodi:nodetypes="csscc"
         id="path1112"
         style="opacity:1;fill:#009100;fill-opacity:1;stroke:none;stroke-width:0.669196;stroke-miterlimit:4;stroke-dasharray:none;stroke-opacity:1"
         d="m 81.295098,210.64603 c -2.191209,-6.51352 -4.999564,-11.7043 -2.616187,-14.41986 2.330645,-2.65549 5.316448,-4.13208 8.710493,-5.26534 6.864843,-2.29214 -12.238212,16.15128 4.097869,24.22862 -1.77813,2.78272 -6.39998,6.62078 -10.192175,-4.54342 z"
         inkscape:connector-curvature="0" />
      <path
         sodipodi:nodetypes="csscscsscssss"
         inkscape:connector-curvature="0"
         d="m 9.9469582,202.09555 c 14.7388688,2.29172 37.8435698,2.83137 42.3288508,0.78375 4.386054,-2.00232 -9.126383,-5.89517 -8.462346,-8.93524 1.343092,-6.14888 -31.124217,7.87494 -56.256793,-7.37192 -47.482065,-6.93167 -64.885229,-15.58745 -73.737482,-16.1595 -26.074858,-1.68502 68.208802,27.15807 96.1277702,31.68291 z m 28.3669548,-8.56262 c -1.740045,4.43469 2.06414,8.48452 7.58039,9.34223 5.51624,0.85771 126.494737,-2.90109 121.008227,-3.54524 -3.43573,-0.40337 1.62481,-6.57003 -6.61924,-7.27822 -16.806,-1.44368 -51.92577,1.90472 -68.084905,-2.28982 -17.400583,-4.51678 -23.296982,-15.28063 -15.452917,-18.58924 5.365848,-2.2633 -36.082673,16.37391 -38.431555,22.36029 z"
         style="opacity:1;fill:#009100;fill-opacity:1;stroke:none;stroke-width:0.918537;stroke-miterlimit:4;stroke-dasharray:none;stroke-opacity:1"
         id="path1119" />
      <circle
         r="6.4255953"
         cy="165.46428"
         cx="69.547623"
         id="path1123"
         style="opacity:1;fill:#ffffff;fill-opacity:1;stroke:none;stroke-width:1.21429;stroke-miterlimit:4;stroke-dasharray:none;stroke-opacity:1" />
      <ellipse
         ry="5.6696429"
         rx="3.96875"
         style="opacity:1;fill:#2d2d2d;fill-opacity:1;stroke:none;stroke-width:0.896421;stroke-miterlimit:4;stroke-dasharray:none;stroke-opacity:1"
         id="circle1125"
         cx="72.004471"
         cy="166.22023" />
      <path
         style="opacity:1;fill:#ffffff;fill-opacity:1;stroke:none;stroke-width:1;stroke-miterlimit:4;stroke-dasharray:none;stroke-opacity:1"
         d="m 13.470026,181.56884 a 7.181547,7.181547 0 0 0 -4.7012477,9.00294 7.181547,7.181547 0 0 0 0.4015543,0.99295 7.181547,7.181547 0 0 1 4.9335374,-7.97636 7.181547,7.181547 0 0 1 8.600887,3.70845 7.181547,7.181547 0 0 0 -0.232135,-1.02608 7.181547,7.181547 0 0 0 -9.002596,-4.7019 z"
         id="path1138"
         inkscape:connector-curvature="0" />
      <path
         style="opacity:1;fill:#ffffff;fill-opacity:1;stroke:none;stroke-width:1;stroke-miterlimit:4;stroke-dasharray:none;stroke-opacity:1"
         d="m 30.856931,181.19086 a 7.181547,7.181547 0 0 0 -4.701248,9.00294 7.181547,7.181547 0 0 0 0.401554,0.99295 7.181547,7.181547 0 0 1 4.933538,-7.97636 7.181547,7.181547 0 0 1 8.600887,3.70845 7.181547,7.181547 0 0 0 -0.232135,-1.02608 7.181547,7.181547 0 0 0 -9.002596,-4.7019 z"
         id="path1140"
         inkscape:connector-curvature="0" />
      <path
         inkscape:connector-curvature="0"
         id="path1133"
         d="m 47.865859,172.49741 a 7.181547,7.181547 0 0 0 -4.701247,9.00294 7.181547,7.181547 0 0 0 0.401554,0.99295 7.181547,7.181547 0 0 1 4.933537,-7.97636 7.181547,7.181547 0 0 1 8.600887,3.70845 7.181547,7.181547 0 0 0 -0.232135,-1.02608 7.181547,7.181547 0 0 0 -9.002596,-4.7019 z"
         style="opacity:1;fill:#ffffff;fill-opacity:1;stroke:none;stroke-width:1;stroke-miterlimit:4;stroke-dasharray:none;stroke-opacity:1" />
    </g>
  </g>
</svg>
