<?xml version="1.0" encoding="UTF-8" standalone="no"?>
<svg
   viewBox="0 0 25 25"
   version="1.1"
   id="svg12"
   sodipodi:docname="account-group.svg"
   width="25"
   height="25"
   inkscape:version="1.2.2 (1:1.2.2+202305151914+b0a8486541)"
   xmlns:inkscape="http://www.inkscape.org/namespaces/inkscape"
   xmlns:sodipodi="http://sodipodi.sourceforge.net/DTD/sodipodi-0.dtd"
   xmlns="http://www.w3.org/2000/svg"
   xmlns:svg="http://www.w3.org/2000/svg">
  <defs
     id="defs16" />
  <sodipodi:namedview
     id="namedview14"
     pagecolor="#ffffff"
     bordercolor="#000000"
     borderopacity="0.25"
     inkscape:showpageshadow="2"
     inkscape:pageopacity="0.0"
     inkscape:pagecheckerboard="0"
     inkscape:deskcolor="#d1d1d1"
     showgrid="false"
     inkscape:zoom="20.541667"
     inkscape:cx="11.975659"
     inkscape:cy="12.048682"
     inkscape:window-width="1366"
     inkscape:window-height="673"
     inkscape:window-x="0"
     inkscape:window-y="0"
     inkscape:window-maximized="1"
     inkscape:current-layer="svg12" />
  <path
     d="M 12.522158,3.9779716 A 3.5524608,4.1400757 0 0 1 16.074619,8.1180474 3.5524608,4.1400757 0 0 1 12.522158,12.258123 3.5524608,4.1400757 0 0 1 8.9696982,8.1180474 3.5524608,4.1400757 0 0 1 12.522158,3.9779716 M 5.4172374,6.9351685 c 0.5683937,0 1.0961879,0.1774318 1.5529328,0.4968089 -0.1522483,1.691516 0.274047,3.3712046 1.1469374,4.6841996 -0.5074944,1.135564 -1.5224832,1.916264 -2.6998702,1.916264 A 3.0449664,3.5486363 0 0 1 2.372271,10.483806 3.0449664,3.5486363 0 0 1 5.4172374,6.9351685 m 14.2098426,0 a 3.0449664,3.5486363 0 0 1 3.044966,3.5486375 3.0449664,3.5486363 0 0 1 -3.044966,3.548635 c -1.177387,0 -2.192376,-0.7807 -2.699871,-1.916264 C 17.8001,10.803182 18.226395,9.1234934 18.074147,7.4319774 18.530892,7.1126003 19.058686,6.9351685 19.62708,6.9351685 M 5.9247318,19.059676 c 0,-2.448559 2.9536174,-4.435795 6.5974262,-4.435795 3.64381,0 6.597427,1.987236 6.597427,4.435795 v 2.070038 H 5.9247318 v -2.070038 m -5.58243859,2.070038 v -1.774318 c 0,-1.644202 1.91832899,-3.02817 4.51670029,-3.430349 -0.5988434,0.804357 -0.9642393,1.916264 -0.9642393,3.134629 v 2.070038 H 0.34229321 m 24.35973079,0 h -3.552461 v -2.070038 c 0,-1.218365 -0.365396,-2.330272 -0.96424,-3.134629 2.598372,0.402179 4.516701,1.786147 4.516701,3.430349 z"
     id="path10"
     style="stroke-width:1.09572" />
</svg>
