<?xml version="1.0" encoding="UTF-8" standalone="no"?>
<svg
   viewBox="0 0 25 25"
   version="1.1"
   id="svg4"
   sodipodi:docname="account-box.svg"
   width="25"
   height="25"
   inkscape:version="1.2.2 (1:1.2.2+202305151914+b0a8486541)"
   xmlns:inkscape="http://www.inkscape.org/namespaces/inkscape"
   xmlns:sodipodi="http://sodipodi.sourceforge.net/DTD/sodipodi-0.dtd"
   xmlns="http://www.w3.org/2000/svg"
   xmlns:svg="http://www.w3.org/2000/svg">
  <defs
     id="defs8" />
  <sodipodi:namedview
     id="namedview6"
     pagecolor="#ffffff"
     bordercolor="#000000"
     borderopacity="0.25"
     inkscape:showpageshadow="2"
     inkscape:pageopacity="0.0"
     inkscape:pagecheckerboard="0"
     inkscape:deskcolor="#d1d1d1"
     showgrid="false"
     inkscape:zoom="14.525152"
     inkscape:cx="6.1961487"
     inkscape:cy="13.115181"
     inkscape:window-width="1366"
     inkscape:window-height="673"
     inkscape:window-x="0"
     inkscape:window-y="0"
     inkscape:window-maximized="1"
     inkscape:current-layer="svg4" />
  <path
     d="m 4.6757982,19.1317 c 0,-2.631594 5.2631888,-4.078971 7.8947828,-4.078971 2.631594,0 7.894783,1.447377 7.894783,4.078971 v 1.315797 H 4.6757982 M 16.517973,8.6053227 A 3.9473916,3.9473916 0 0 1 12.570581,12.552714 3.9473916,3.9473916 0 0 1 8.6231898,8.6053227 3.9473916,3.9473916 0 0 1 12.570581,4.6579311 3.9473916,3.9473916 0 0 1 16.517973,8.6053227 M 0.72840658,3.3421339 V 21.763294 A 2.6315944,2.6315944 0 0 0 3.360001,24.394889 h 18.42116 a 2.6315944,2.6315944 0 0 0 2.631595,-2.631595 V 3.3421339 A 2.6315944,2.6315944 0 0 0 21.781161,0.71053954 H 3.360001 c -1.4605349,0 -2.63159442,1.18421746 -2.63159442,2.63159436 z"
     id="path2"
     style="stroke-width:1.3158" />
</svg>
