<?xml version="1.0" encoding="UTF-8" standalone="no"?>
<svg
   viewBox="0 0 25 25"
   version="1.1"
   id="svg20"
   sodipodi:docname="bell-ring-outline.svg"
   width="25"
   height="25"
   inkscape:version="1.2.2 (1:1.2.2+202305151914+b0a8486541)"
   xmlns:inkscape="http://www.inkscape.org/namespaces/inkscape"
   xmlns:sodipodi="http://sodipodi.sourceforge.net/DTD/sodipodi-0.dtd"
   xmlns="http://www.w3.org/2000/svg"
   xmlns:svg="http://www.w3.org/2000/svg">
  <defs
     id="defs24" />
  <sodipodi:namedview
     id="namedview22"
     pagecolor="#ffffff"
     bordercolor="#000000"
     borderopacity="0.25"
     inkscape:showpageshadow="2"
     inkscape:pageopacity="0.0"
     inkscape:pagecheckerboard="0"
     inkscape:deskcolor="#d1d1d1"
     showgrid="false"
     inkscape:zoom="20.541667"
     inkscape:cx="11.975659"
     inkscape:cy="8.1541582"
     inkscape:window-width="1366"
     inkscape:window-height="673"
     inkscape:window-x="0"
     inkscape:window-y="0"
     inkscape:window-maximized="1"
     inkscape:current-layer="svg20" />
  <path
     d="m 10.439242,21 h 4 a 2,2 0 0 1 -2,2 2,2 0 0 1 -2,-2 m 11,-2 v 1 H 3.4392422 v -1 l 2,-2 v -6 c 0,-3.1 2.03,-5.83 4.9999998,-6.71 0,-0.1 0,-0.19 0,-0.29 a 2,2 0 0 1 2,-2 2,2 0 0 1 2,2 c 0,0.1 0,0.19 0,0.29 2.97,0.88 5,3.61 5,6.71 v 6 l 2,2 m -4,-8 a 5,5 0 0 0 -5,-5 5,5 0 0 0 -4.9999998,5 v 7 h 9.9999998 v -7 m 2.75,-7.81 -1.42,1.42 c 1.71,1.69 2.67,3.99 2.67,6.39 h 2 c 0,-2.93 -1.16,-5.75 -3.25,-7.81 M 1.4392422,11 h 2 c 0,-2.4 0.96,-4.7 2.67,-6.39 l -1.42,-1.42 c -2.09,2.06 -3.25,4.88 -3.25,7.81 z"
     id="path18" />
</svg>
