<?xml version="1.0" encoding="UTF-8" standalone="no"?>
<svg
   viewBox="0 0 25 25"
   version="1.1"
   id="svg36"
   sodipodi:docname="cog-outline.svg"
   width="25"
   height="25"
   inkscape:version="1.2.2 (1:1.2.2+202305151914+b0a8486541)"
   xmlns:inkscape="http://www.inkscape.org/namespaces/inkscape"
   xmlns:sodipodi="http://sodipodi.sourceforge.net/DTD/sodipodi-0.dtd"
   xmlns="http://www.w3.org/2000/svg"
   xmlns:svg="http://www.w3.org/2000/svg">
  <defs
     id="defs40" />
  <sodipodi:namedview
     id="namedview38"
     pagecolor="#ffffff"
     bordercolor="#000000"
     borderopacity="0.25"
     inkscape:showpageshadow="2"
     inkscape:pageopacity="0.0"
     inkscape:pagecheckerboard="0"
     inkscape:deskcolor="#d1d1d1"
     showgrid="false"
     inkscape:zoom="20.541667"
     inkscape:cx="11.975659"
     inkscape:cy="12.048682"
     inkscape:window-width="1366"
     inkscape:window-height="673"
     inkscape:window-x="0"
     inkscape:window-y="0"
     inkscape:window-maximized="1"
     inkscape:current-layer="svg36" />
  <path
     d="m 12,8 a 4,4 0 0 1 4,4 4,4 0 0 1 -4,4 4,4 0 0 1 -4,-4 4,4 0 0 1 4,-4 m 0,2 a 2,2 0 0 0 -2,2 2,2 0 0 0 2,2 2,2 0 0 0 2,-2 2,2 0 0 0 -2,-2 M 10,22 C 9.75,22 9.54,21.82 9.5,21.58 L 9.13,18.93 C 8.5,18.68 7.96,18.34 7.44,17.94 l -2.49,1.01 c -0.22,0.08 -0.49,0 -0.61,-0.22 l -2,-3.46 C 2.21,15.05 2.27,14.78 2.46,14.63 L 4.57,12.97 4.5,12 4.57,11 2.46,9.37 C 2.27,9.22 2.21,8.95 2.34,8.73 l 2,-3.46 C 4.46,5.05 4.73,4.96 4.95,5.05 l 2.49,1 C 7.96,5.66 8.5,5.32 9.13,5.07 L 9.5,2.42 C 9.54,2.18 9.75,2 10,2 h 4 c 0.25,0 0.46,0.18 0.5,0.42 l 0.37,2.65 c 0.63,0.25 1.17,0.59 1.69,0.98 l 2.49,-1 c 0.22,-0.09 0.49,0 0.61,0.22 l 2,3.46 c 0.13,0.22 0.07,0.49 -0.12,0.64 l -2.11,1.63 0.07,1 -0.07,1 2.11,1.63 c 0.19,0.15 0.25,0.42 0.12,0.64 l -2,3.46 c -0.12,0.22 -0.39,0.31 -0.61,0.22 l -2.49,-1 c -0.52,0.39 -1.06,0.73 -1.69,0.98 L 14.5,21.58 C 14.46,21.82 14.25,22 14,22 H 10 M 11.25,4 10.88,6.61 C 9.68,6.86 8.62,7.5 7.85,8.39 L 5.44,7.35 4.69,8.65 6.8,10.2 c -0.4,1.17 -0.4,2.44 0,3.6 l -2.12,1.56 0.75,1.3 2.43,-1.04 c 0.77,0.88 1.82,1.52 3.01,1.76 L 11.24,20 h 1.52 l 0.37,-2.61 c 1.19,-0.25 2.24,-0.89 3.01,-1.77 l 2.43,1.04 0.75,-1.3 -2.12,-1.55 c 0.4,-1.17 0.4,-2.44 0,-3.61 L 19.31,8.65 18.56,7.35 16.15,8.39 C 15.38,7.5 14.32,6.86 13.12,6.62 L 12.75,4 Z"
     id="path34" />
</svg>
