<?xml version="1.0" encoding="UTF-8" standalone="no"?>
<svg
   viewBox="0 0 25 25"
   version="1.1"
   id="svg44"
   sodipodi:docname="eye-plus-outline.svg"
   width="25"
   height="25"
   inkscape:version="1.2.2 (1:1.2.2+202305151914+b0a8486541)"
   xmlns:inkscape="http://www.inkscape.org/namespaces/inkscape"
   xmlns:sodipodi="http://sodipodi.sourceforge.net/DTD/sodipodi-0.dtd"
   xmlns="http://www.w3.org/2000/svg"
   xmlns:svg="http://www.w3.org/2000/svg">
  <defs
     id="defs48" />
  <sodipodi:namedview
     id="namedview46"
     pagecolor="#ffffff"
     bordercolor="#000000"
     borderopacity="0.25"
     inkscape:showpageshadow="2"
     inkscape:pageopacity="0.0"
     inkscape:pagecheckerboard="0"
     inkscape:deskcolor="#d1d1d1"
     showgrid="false"
     inkscape:zoom="20.541667"
     inkscape:cx="11.975659"
     inkscape:cy="12.048682"
     inkscape:window-width="1366"
     inkscape:window-height="673"
     inkscape:window-x="0"
     inkscape:window-y="0"
     inkscape:window-maximized="1"
     inkscape:current-layer="svg44" />
  <path
     d="M 12,4.5 C 7,4.5 2.73,7.61 1,12 c 1.73,4.39 6,7.5 11,7.5 0.36,0 0.72,0 1.08,-0.05 C 13.03,19.13 13,18.82 13,18.5 13,18.14 13.04,17.78 13.1,17.42 12.74,17.46 12.37,17.5 12,17.5 8.24,17.5 4.83,15.36 3.18,12 4.83,8.64 8.24,6.5 12,6.5 c 3.76,0 7.17,2.14 8.82,5.5 -0.12,0.24 -0.26,0.45 -0.39,0.68 0.66,0.16 1.29,0.43 1.86,0.82 C 22.56,13 22.8,12.5 23,12 21.27,7.61 17,4.5 12,4.5 M 12,9 a 3,3 0 0 0 -3,3 3,3 0 0 0 3,3 3,3 0 0 0 3,-3 3,3 0 0 0 -3,-3 m 6,5.5 v 3 h -3 v 2 h 3 v 3 h 2 v -3 h 3 v -2 h -3 v -3 z"
     id="path42" />
</svg>
