<?xml version="1.0" encoding="UTF-8" standalone="no"?>
<svg
   viewBox="0 0 25 25"
   version="1.1"
   id="svg4"
   sodipodi:docname="history.svg"
   width="25"
   height="25"
   inkscape:version="1.2.2 (1:1.2.2+202305151914+b0a8486541)"
   xmlns:inkscape="http://www.inkscape.org/namespaces/inkscape"
   xmlns:sodipodi="http://sodipodi.sourceforge.net/DTD/sodipodi-0.dtd"
   xmlns="http://www.w3.org/2000/svg"
   xmlns:svg="http://www.w3.org/2000/svg">
  <defs
     id="defs8" />
  <sodipodi:namedview
     id="namedview6"
     pagecolor="#ffffff"
     bordercolor="#000000"
     borderopacity="0.25"
     inkscape:showpageshadow="2"
     inkscape:pageopacity="0.0"
     inkscape:pagecheckerboard="0"
     inkscape:deskcolor="#d1d1d1"
     showgrid="false"
     inkscape:zoom="20.541667"
     inkscape:cx="11.975659"
     inkscape:cy="12.048682"
     inkscape:window-width="1366"
     inkscape:window-height="673"
     inkscape:window-x="0"
     inkscape:window-y="0"
     inkscape:window-maximized="1"
     inkscape:current-layer="svg4" />
  <path
     d="M 13.5,8 H 12 v 5 L 16.28,15.54 17,14.33 13.5,12.25 V 8 M 13,3 A 9,9 0 0 0 4,12 H 1 L 4.96,16.03 9,12 H 6 a 7,7 0 0 1 7,-7 7,7 0 0 1 7,7 7,7 0 0 1 -7,7 C 11.07,19 9.32,18.21 8.06,16.94 L 6.64,18.36 C 8.27,20 10.5,21 13,21 a 9,9 0 0 0 9,-9 9,9 0 0 0 -9,-9"
     id="path2" />
</svg>
