<?xml version="1.0" encoding="UTF-8" standalone="no"?>
<svg
   viewBox="0 0 25 25"
   version="1.1"
   id="svg20"
   sodipodi:docname="magnify.svg"
   width="25"
   height="25"
   inkscape:version="1.2.2 (1:1.2.2+202305151914+b0a8486541)"
   xmlns:inkscape="http://www.inkscape.org/namespaces/inkscape"
   xmlns:sodipodi="http://sodipodi.sourceforge.net/DTD/sodipodi-0.dtd"
   xmlns="http://www.w3.org/2000/svg"
   xmlns:svg="http://www.w3.org/2000/svg">
  <defs
     id="defs24" />
  <sodipodi:namedview
     id="namedview22"
     pagecolor="#ffffff"
     bordercolor="#000000"
     borderopacity="0.25"
     inkscape:showpageshadow="2"
     inkscape:pageopacity="0.0"
     inkscape:pagecheckerboard="0"
     inkscape:deskcolor="#d1d1d1"
     showgrid="false"
     inkscape:zoom="20.541667"
     inkscape:cx="11.975659"
     inkscape:cy="12.048682"
     inkscape:window-width="1366"
     inkscape:window-height="673"
     inkscape:window-x="0"
     inkscape:window-y="0"
     inkscape:window-maximized="1"
     inkscape:current-layer="svg20" />
  <path
     d="M 9.5,3 A 6.5,6.5 0 0 1 16,9.5 c 0,1.61 -0.59,3.09 -1.56,4.23 L 14.71,14 h 0.79 l 5,5 -1.5,1.5 -5,-5 V 14.71 L 13.73,14.44 C 12.59,15.41 11.11,16 9.5,16 A 6.5,6.5 0 0 1 3,9.5 6.5,6.5 0 0 1 9.5,3 m 0,2 C 7,5 5,7 5,9.5 5,12 7,14 9.5,14 12,14 14,12 14,9.5 14,7 12,5 9.5,5 Z"
     id="path18" />
</svg>
